<svg width="100" height="100" viewBox="0 0 100 100" fill="none" xmlns="http://www.w3.org/2000/svg">
<rect width="100" height="100" rx="50" fill="white" fill-opacity="0.1"/>
<path fill-rule="evenodd" clip-rule="evenodd" d="M56.7733 50.4277C55.2526 51.9526 53.3075 52.8677 51.1877 52.8677C49.0495 52.8677 47.0891 51.9367 45.5627 50.388C44.4474 50.767 41.8962 51.497 40.0274 50.9877C37.5697 50.3179 36.2922 47.5046 36.2922 47.5046C36.2922 47.5046 39.6928 46.8677 40.5503 45.0619C40.8442 44.4428 40.9366 42.364 40.9311 39.8991C40.919 34.4305 45.8397 30.1583 51.1879 31.2997C51.1879 31.2997 51.188 31.2997 51.1881 31.2997C56.368 29.8681 61.4705 33.7455 61.7971 39.1097C61.9899 42.2757 62.2891 45.0754 62.7519 45.706C63.9292 47.3101 66.9165 47.5046 66.9165 47.5046C66.9165 47.5046 67.0161 50.0395 63.3161 50.9877C60.5094 51.707 57.8796 50.8725 56.7733 50.4277Z" fill="white"/>
<path fill-rule="evenodd" clip-rule="evenodd" d="M39.344 68.9104C34.8529 68.9104 32.1235 63.9607 34.5203 60.1625C34.5506 60.1145 34.5943 60.0763 34.646 60.0527L44.7966 55.4179V49.9509H55.2489V55.4179L65.6467 60.0528C65.6994 60.0763 65.744 60.1149 65.7748 60.1637C68.1712 63.9613 65.4422 68.9104 60.9517 68.9104H39.344Z" fill="white"/>
</svg>
