<svg width="100" height="100" viewBox="0 0 100 100" fill="none" xmlns="http://www.w3.org/2000/svg">
<rect width="100" height="100" rx="50" fill="white" fill-opacity="0.1"/>
<ellipse cx="50.4081" cy="37.5902" rx="10.1829" ry="10.5902" fill="white"/>
<path fill-rule="evenodd" clip-rule="evenodd" d="M32.0002 66.7909C32.0001 66.7908 32 66.7907 32 66.7905L32.7942 61.6317C33.7059 55.7096 38.052 50.8969 43.8507 49.388L44.0865 49.3266C44.4078 49.243 44.7462 49.2509 45.0633 49.3495L45.1711 49.383C48.5807 50.4433 52.2336 50.4314 55.6362 49.3491C55.9454 49.2508 56.2759 49.2406 56.5906 49.3198L56.826 49.3791C62.7928 50.8808 67.2086 55.9167 67.9181 62.0285L68.4709 66.7906C68.4709 66.7907 68.4708 66.7908 68.4707 66.7909C56.7224 70.582 44.0845 70.6168 32.3154 66.8907L32.0002 66.7909Z" fill="white"/>
</svg>
